<svg xmlns="http://www.w3.org/2000/svg" width="188" height="52" fill="none" viewBox="0 0 188 52"><g clip-path="url(#a)"><path fill="#0278fe" d="M82.158 1.486c0-.82.662-1.486 1.48-1.486h20.724c.818 0 1.481.665 1.481 1.486v20.8c0 .82-.663 1.485-1.481 1.485H83.638c-.818 0-1.48-.665-1.48-1.485z"/><path fill="#2a2c2f" d="M105.843 4.457H82.157v1.486h23.686z"/><path fill="#2a2c2f" d="M91.78 4.457H90.3v19.314h1.48z"/><path fill="#fff" d="m87.57 51.258.62-2.068h3.554l.62 2.068h3.155l-3.554-10.805H87.97l-3.554 10.805zm1.283-4.263 1.072-3.567h.085l1.072 3.567zm7.703 4.263h2.922V47.69h1.009l1.893 3.567h3.175l-2.187-4.031c1.147-.554 1.83-1.604 1.83-3.102 0-2.3-1.603-3.672-3.996-3.672h-4.646zm2.922-5.846v-2.617h1.031c1.025 0 1.64.401 1.64 1.33 0 .923-.615 1.287-1.64 1.287zm6.671-2.596h3.238v8.442h2.881v-8.442h3.238v-2.363h-9.357zm20.398 1.203h2.954c-.226-2.169-2.187-3.714-4.731-3.714-2.902 0-5.257 2.005-5.257 5.571 0 3.419 2.135 5.53 5.278 5.53 2.818 0 4.836-1.731 4.836-4.686v-1.498h-4.773v2.09h1.956c-.026.938-.689 1.54-1.998 1.54-1.514 0-2.292-1.119-2.292-3.018 0-1.873.841-2.976 2.313-2.976.915 0 1.536.422 1.714 1.161m6.907 7.239.621-2.068h3.554l.62 2.068h3.154l-3.554-10.805h-3.995l-3.553 10.805zm1.283-4.263 1.073-3.567h.084l1.072 3.567zm7.702 4.263h7.276v-2.364h-4.353v-8.441h-2.923zm8.457 0h7.275v-2.364h-4.352v-8.441h-2.923zm8.458 0h7.737v-2.364h-4.815v-1.857h4.437v-2.364h-4.437v-1.857h4.836v-2.363h-7.758zm9.208 0h2.923V47.69h1.009l1.892 3.567h3.176l-2.188-4.031c1.147-.554 1.83-1.604 1.83-3.102 0-2.3-1.603-3.672-3.995-3.672h-4.647zm2.923-5.846v-2.617h1.03c1.025 0 1.64.401 1.64 1.33 0 .923-.615 1.287-1.64 1.287zm6.017-4.959 3.954 7.407v3.398h2.901V47.86l3.953-7.407h-3.259l-2.102 4.39h-.085l-2.102-4.39zm-97.093 0v10.805h-2.44l-3.89-5.677h-.062v5.677h-2.923V40.453h2.481l3.827 5.655h.084v-5.655zM61.886 51.258V40.453h7.76v2.363h-4.837v1.857h4.437v2.364h-4.437v1.857h4.815v2.364zM51.43 42.816v-2.363h9.356v2.363h-3.238v8.442h-2.88v-8.442zm-8.915 8.442V40.453h7.759v2.363h-4.837v1.857h4.437v2.364h-4.437v1.857h4.816v2.364zm-8.457 0V40.453h2.922v8.441h4.353v2.364zm-9.715 0V40.453h4.647q1.198 0 2.098.474a3.44 3.44 0 0 1 1.398 1.335q.5.861.5 2.01 0 1.161-.516 2.01a3.4 3.4 0 0 1-1.435 1.309q-.92.459-2.15.459h-2.776v-2.28h2.187q.516 0 .878-.179.368-.184.563-.522.2-.337.2-.797 0-.465-.2-.791a1.25 1.25 0 0 0-.563-.507q-.363-.179-.878-.179h-1.03v8.463zm-1.385-10.805v10.805h-2.923V40.453zm-12.81 10.805V40.453h4.647q1.198 0 2.097.438.9.437 1.398 1.26.5.824.5 1.974 0 1.16-.516 1.957-.51.797-1.435 1.203-.92.405-2.15.406h-2.775v-2.279H14.1q.515 0 .877-.127a1.1 1.1 0 0 0 .563-.416q.2-.285.2-.744 0-.464-.2-.755a1.1 1.1 0 0 0-.563-.432 2.4 2.4 0 0 0-.877-.143h-1.03v8.463zm6.308-4.96 2.691 4.96h-3.175l-2.628-4.96zM-.31 42.816v-2.363h9.358v2.363H5.809v8.442H2.93v-8.442z"/></g><defs><clipPath id="a"><path fill="#fff" d="M0 0h188v52H0z"/></clipPath></defs></svg>